PathFileType	4	(X/Y/Z)	OpenSim_Sub03_EMGStiffKnee_Accel.trc
DataRate	CameraRate	NumFrames	NumMarkers	Units	OrigDataRate	OrigDataStartFrame	OrigNumFrames
100	100	21	8	m	100	1	7597
Frame#	Time	torso_imu_offset_imu	pelvis_imu_offset_imu	tibia_r_imu_offset_imu	femur_r_imu_offset_imu	tibia_l_imu_offset_imu	femur_l_imu_offset_imu	toes_r_imu_offset_imu	toes_l_imu_offset_imu
				X1	Y1	Z1	X2	Y2	Z2	X3	Y3	Z3	X4	Y4	Z4	X5	Y5	Z5	X6	Y6	Z6	X7	Y7	Z7	X8		Y8	Z8	

1	0	9.42355317	0.72910198	5.33430515	9.64321021	-0.20103331	2.38049479	9.77052960	1.59933734	0.70482854	9.71173156	-0.67146263	1.04979328	9.76043572	-1.08004527	0.88569987	9.82159999	0.05453857	-0.55313184	6.09835815	-1.99771954	7.68499588	5.60261439	0.79802408	10.75809025
2	0.01000000	9.43481101	0.78765157	5.32320731	9.69562955	-0.17858894	2.35979568	9.73271125	1.61042729	0.73758892	9.73614191	-0.66407801	1.04536028	9.77779090	-1.07469123	0.87639863	9.83255498	-0.03454990	-0.48497906	6.09150707	-2.01521372	7.68340621	5.65252530	0.82962737	10.74606147
3	0.02000000	9.46600382	0.81587740	5.34830100	9.75415238	-0.14674566	2.37161542	9.76954496	1.60512257	0.73629681	9.72891658	-0.64007500	1.03887535	9.72560571	-1.13328868	0.86286246	9.84579563	-0.00625461	-0.50489493	6.07580414	-1.98103777	7.69206097	5.65501483	0.83581198	10.73871217
4	0.03000000	9.48317625	0.81633543	5.36025147	9.74545890	-0.09932241	2.38519421	9.81420982	1.53222400	0.75176607	9.77819309	-0.63331681	1.09897485	9.71394261	-1.21842142	0.82136516	9.82223693	0.05569024	-0.52911783	6.08957409	-2.00334666	7.68624522	5.64145035	0.82537001	10.73935801
5	0.04000000	9.45385499	0.83501845	5.35798375	9.74876351	-0.06472425	2.33087820	9.79875589	1.53481229	0.73093425	9.76420630	-0.59951454	1.06447012	9.72554760	-1.11407254	0.81320715	9.79691246	0.08272735	-0.52545224	6.05768462	-2.02920710	7.66581598	5.63826285	0.84686025	10.75121197
6	0.05000000	9.46880001	0.83016494	5.35800206	9.75437693	-0.08021983	2.37746930	9.75587035	1.57512435	0.71479893	9.73679654	-0.64947364	1.05836654	9.73203371	-1.00907266	0.84111474	9.80528176	0.12188922	-0.48815115	6.07746579	-2.02936718	7.64838841	5.62058034	0.82919541	10.74638942
7	0.06000000	9.48832939	0.80946161	5.33660423	9.69302104	-0.10646049	2.41083463	9.77771632	1.55261371	0.72079046	9.75285289	-0.65242514	1.09972782	9.76889051	-1.06689223	0.83711891	9.81626101	0.13324764	-0.51934025	6.06044244	-1.99712183	7.69670680	5.61724166	0.81442489	10.74123031
8	0.07000000	9.48025081	0.81074665	5.35605769	9.65739927	-0.13369857	2.40658495	9.77942246	1.57690545	0.72187608	9.75254460	-0.67545294	1.07675470	9.79151595	-1.01538277	0.89313168	9.83256850	0.17367913	-0.52063586	6.10279650	-1.98621492	7.66214537	5.60514611	0.83612190	10.75139734
9	0.08000000	9.44614459	0.79691265	5.36450746	9.66224819	-0.16269028	2.39319670	9.77490330	1.53664208	0.75813084	9.70606044	-0.65956789	1.05503479	9.76339461	-0.94672470	0.87752195	9.84443409	0.15027620	-0.55016061	6.08614023	-2.00457775	7.64630027	5.62842160	0.82457605	10.76697110
10	0.09000000	9.46144842	0.81783904	5.38037386	9.66815058	-0.15502422	2.44556843	9.78895405	1.50262146	0.75149769	9.73966185	-0.66058741	1.01977243	9.73882057	-1.00890980	0.91890592	9.85237882	0.09812762	-0.52456333	6.04883523	-2.02552466	7.66337746	5.64779186	0.81227870	10.74595325
11	0.10000000	9.44715011	0.84446823	5.33352712	9.64462566	-0.16812244	2.41786189	9.79577927	1.49928586	0.75938396	9.75419598	-0.71838922	1.00855299	9.76854197	-1.05530655	0.88476199	9.82482162	0.05250869	-0.54256035	6.05890762	-2.02127832	7.65106270	5.61728272	0.80065773	10.71306136
12	0.11000000	9.44934644	0.78862011	5.34256502	9.65548576	-0.15437238	2.42566045	9.78479093	1.41495706	0.73226687	9.72557159	-0.72315428	0.99131102	9.74574494	-0.98795844	0.81641714	9.78094195	0.07047822	-0.43691654	6.08513797	-1.98769451	7.69038893	5.63122195	0.87429169	10.73756776
13	0.12000000	9.43381921	0.83901938	5.30475119	9.65148730	-0.13998384	2.41974838	9.78337048	1.45822143	0.76158620	9.74375747	-0.73268945	1.03304419	9.74689633	-0.95552904	0.88631222	9.81193096	0.01528159	-0.46004421	6.08780786	-2.02300832	7.66888264	5.59099849	0.85079075	10.76380894
14	0.13000000	9.44442194	0.83475952	5.32739633	9.69715842	-0.13036967	2.42896324	9.77494888	1.50882921	0.78643820	9.73192124	-0.73867557	1.00259642	9.77079818	-1.07589419	0.84421654	9.88093581	-0.02330638	-0.53240264	6.07738018	-2.00171644	7.64822863	5.58657770	0.82485759	10.73378000
15	0.14000000	9.46418613	0.83222604	5.34137309	9.66712134	-0.13245429	2.42538143	9.82061701	1.49710217	0.69829681	9.74189144	-0.74161169	0.99025868	9.75927317	-1.13641389	0.83881515	9.86754633	-0.00958074	-0.56513639	6.10289023	-2.03695541	7.64783654	5.62630681	0.83446735	10.74074459
16	0.15000000	9.45677763	0.83322915	5.30182281	9.67707058	-0.15140933	2.40910351	9.79894975	1.45683656	0.71871147	9.73308430	-0.73037617	1.02069097	9.76401300	-1.23061661	0.87871885	9.81484256	0.04080869	-0.55515729	6.05383307	-2.01931682	7.68192543	5.60635670	0.81462271	10.75318548
17	0.16000000	9.43640254	0.81160629	5.31736924	9.65953196	-0.13784456	2.42057711	9.80000395	1.48192511	0.73315087	9.74237671	-0.73011625	1.04640824	9.74165937	-1.13808350	0.86782003	9.82384127	-0.05698620	-0.54121015	6.03826179	-2.05739093	7.65017221	5.62810098	0.86488421	10.74026826
18	0.17000000	9.48708779	0.80913352	5.26359165	9.68473733	-0.16264981	2.40749767	9.79021746	1.42353753	0.77798593	9.74406049	-0.71929525	1.01587144	9.77027265	-1.13400820	0.92426426	9.85031156	-0.08533920	-0.57649462	6.06082057	-2.03705266	7.66491022	5.61333142	0.81321486	10.75861609
19	0.18000000	9.45959597	0.80620148	5.34921165	9.65337646	-0.17351561	2.43406110	9.76894835	1.48546850	0.73334768	9.76226130	-0.70855469	1.05731041	9.80994582	-1.23504859	0.85326270	9.84751162	-0.01387623	-0.60217728	6.10678135	-1.99075864	7.67469906	5.66648780	0.79683559	10.73630522
20	0.19000000	9.39702628	0.82441951	5.36409327	9.66411337	-0.18097913	2.43555069	9.78478178	1.39980125	0.84911827	9.74101650	-0.71808246	1.04810163	9.71594099	-1.04466498	0.87751777	9.76613171	0.01986767	-0.59733413	6.12626046	-2.02743431	7.64902167	5.65993869	0.83336208	10.74103651
21	0.20000000	9.45065392	0.81833123	5.31764081	9.63816125	-0.18549205	2.46430966	9.75895877	1.33635233	0.80884270	9.71733799	-0.71288584	1.02078323	9.64345732	-0.91680759	0.87275417	9.71620941	0.06267421	-0.56683994	6.08726914	-2.01244352	7.64817495	5.62876889	0.85910229	10.77034215
